<svg id="Camada_1" data-name="Camada 1" xmlns="http://www.w3.org/2000/svg" viewBox="0 0 503.51 503.51"><defs><style>.cls-1{fill:#34363f;}.cls-2{fill:#2b2d34;}.cls-3{fill:#f8b163;}.cls-4{fill:#f6a23c;}.cls-5{fill:#f1a849;}.cls-6{fill:#d3892f;}.cls-7{fill:#2a5eaa;}.cls-8{fill:#fff;}</style></defs><title>bruto-icon</title><path class="cls-1" d="M508.13,255.25c0,139-112.72,251.75-251.76,251.75S4.62,394.29,4.62,255.25,117.33,3.49,256.37,3.49,508.13,116.21,508.13,255.25Zm0,0" transform="translate(-4.62 -3.49)"/><path class="cls-2" d="M504.88,295.67l-79.83-79.83-.05.06-81.06-81.06H168.81L81.24,222.41,256.37,408.49l2.6-2.77.08.09-2.68,2.68,84.1,84.1c85.41-30.27,149.62-105.31,164.41-196.92Zm0,0" transform="translate(-4.62 -3.49)"/><path class="cls-3" d="M343.94,134.84H168.81L81.24,222.41,256.37,408.49,431.51,222.41Zm0,0" transform="translate(-4.62 -3.49)"/><path class="cls-4" d="M81.24,222.41h87.57V134.84Zm0,0" transform="translate(-4.62 -3.49)"/><path class="cls-5" d="M343.94,134.84v87.57H168.81l87.56,186.08L431.51,222.41Zm0,0" transform="translate(-4.62 -3.49)"/><path class="cls-6" d="M343.94,222.41h87.57L256.37,408.49Zm0,0" transform="translate(-4.62 -3.49)"/><path class="cls-7" d="M501.43,405.72l-2.61,2.77,2.69-2.68Zm0,0" transform="translate(-4.62 -3.49)"/><path class="cls-8" d="M234.48,47.27,223.53,58.4l10.95,10.95L245.42,58.4Zm0,0" transform="translate(-4.62 -3.49)"/><path class="cls-8" d="M398.67,134.66l-10.95,11.13,10.95,10.94,10.94-10.94Zm0,0" transform="translate(-4.62 -3.49)"/><path class="cls-8" d="M114.07,310,103.13,321.1l10.94,10.95,11-10.95Zm0,0" transform="translate(-4.62 -3.49)"/><path class="cls-8" d="M163.2,375.65,146.91,392.2l16.29,16.29,16.28-16.29Zm0,0" transform="translate(-4.62 -3.49)"/><path class="cls-8" d="M283.87,80.11,267.59,96.67,283.87,113l16.28-16.28Zm0,0" transform="translate(-4.62 -3.49)"/><path class="cls-8" d="M387.72,320.74l-10.94,11.13,10.94,10.94,10.95-10.94Zm0,0" transform="translate(-4.62 -3.49)"/></svg>