<?xml version="1.0" encoding="utf-8"?>
<!-- Generator: Adobe Illustrator 24.0.1, SVG Export Plug-In . SVG Version: 6.00 Build 0)  -->
<svg version="1.1" id="Capa_1" xmlns="http://www.w3.org/2000/svg" xmlns:xlink="http://www.w3.org/1999/xlink" x="0px" y="0px"
	 viewBox="0 0 29.6 29.6" style="enable-background:new 0 0 29.6 29.6;" xml:space="preserve">
<style type="text/css">
	.st0{fill:#F0A748;}
</style>
<g>
	<path class="st0" d="M24.8,11.9l-0.7-1.7c0,0,1.7-3.8,1.5-4L23.4,4c-0.2-0.2-4,1.6-4,1.6l-1.8-0.7c0,0-1.6-3.9-1.8-3.9h-3.2
		c-0.2,0-1.7,3.9-1.7,3.9L9.3,5.6c0,0-3.9-1.7-4-1.5L3,6.3c-0.2,0.2,1.6,3.9,1.6,3.9l-0.7,1.7c0,0-3.9,1.5-3.9,1.7v3.1
		c0,0.2,4,1.6,4,1.6l0.7,1.7c0,0-1.7,3.8-1.5,4l2.2,2.2c0.2,0.1,4-1.6,4-1.6l1.8,0.7c0,0,1.6,3.9,1.8,3.9H16c0.2,0,1.7-3.9,1.7-3.9
		l1.8-0.7c0,0,3.9,1.7,4,1.5l2.2-2.2c0.2-0.1-1.6-3.9-1.6-3.9l0.7-1.7c0,0,3.9-1.5,3.9-1.7v-3.1C28.7,13.3,24.8,11.9,24.8,11.9z
		 M14.4,19.6c-2.5,0-4.6-2-4.6-4.5c0-2.5,2.1-4.5,4.6-4.5c2.5,0,4.6,2,4.6,4.5C19,17.6,16.9,19.6,14.4,19.6z"/>
</g>
</svg>
