<svg id="Camada_1" data-name="Camada 1" xmlns="http://www.w3.org/2000/svg" viewBox="0 0 501.75 501.75"><defs><style>.cls-1{fill:#34363f;}.cls-2{fill:#2b2d34;}.cls-3{fill:#fff;}.cls-4{fill:#d1d6da;}.cls-5{fill:#f6a23c;}.cls-6{fill:#f8b163;}</style></defs><title>ingredientes-icon</title><path class="cls-1" d="M506.44,255c0,138.55-112.33,250.88-250.88,250.88S4.69,393.55,4.69,255,117,4.13,255.56,4.13,506.44,116.44,506.44,255Zm0,0" transform="translate(-4.69 -4.13)"/><path class="cls-2" d="M503.26,294.9,377.35,169,132.23,419.43l82.49,83.11a252.14,252.14,0,0,0,40.84,3.34c125,0,228.59-91.4,247.7-211Zm0,0" transform="translate(-4.69 -4.13)"/><path class="cls-3" d="M299,90.57H132.23V419.43H378.88v-249Zm0,0" transform="translate(-4.69 -4.13)"/><path class="cls-4" d="M299,170.43h79.86L299,90.57Zm0,0" transform="translate(-4.69 -4.13)"/><rect class="cls-5" x="147.63" y="168.66" width="27.41" height="27.4"/><rect class="cls-6" x="203.95" y="184.44" width="129.14" height="11.62"/><rect class="cls-6" x="203.95" y="294.06" width="129.14" height="11.62"/><rect class="cls-6" x="203.95" y="348.87" width="129.14" height="11.62"/><rect class="cls-6" x="203.95" y="239.24" width="129.14" height="11.63"/><rect class="cls-5" x="147.63" y="223.47" width="27.41" height="27.4"/><rect class="cls-5" x="147.63" y="278.28" width="27.41" height="27.4"/><rect class="cls-5" x="147.63" y="333.09" width="27.41" height="27.4"/></svg>