<svg id="Camada_1" data-name="Camada 1" xmlns="http://www.w3.org/2000/svg" viewBox="0 0 500.06 500.06"><defs><style>.cls-1{fill:#34363f;}.cls-2{fill:#2b2d34;}.cls-3{fill:#fff;}.cls-4{fill:#e8edf6;}.cls-5{fill:#f1a849;}.cls-6{fill:#f6a23c;}.cls-7{fill:#f8b163;}.cls-8{fill:#d3892f;}</style></defs><title>pacote-icon</title><path class="cls-1" d="M505.88,256.59c0,138.09-111.95,250-250,250s-250-111.95-250-250,111.94-250,250-250,250,111.94,250,250Zm0,0" transform="translate(-5.81 -6.56)"/><path class="cls-2" d="M498.26,318,274.44,94.22,159.16,178.45,237,256.28,110.73,406.5l95.12,95.13a251.13,251.13,0,0,0,50,5c116.89,0,215-80.21,242.42-188.59Zm0,0" transform="translate(-5.81 -6.56)"/><path class="cls-3" d="M247.14,171.74c16.44-22.18,27.3-56.43,27.3-77.52H154.2c0,21.09,10.87,55.34,27.3,77.52C123.75,194.38,81,272.73,81,335c0,73.62,59.66,102.11,133.28,102.11S347.63,408.65,347.63,335c0-62.3-42.74-140.65-100.49-163.29Zm0,0" transform="translate(-5.81 -6.56)"/><path class="cls-4" d="M247.14,171.74c16.44-22.18,27.3-56.43,27.3-77.52H214.3v343c-.09-.11-.05-.11,0-.11,73.62,0,133.33-28.49,133.33-102.11,0-62.3-42.74-140.65-100.49-163.29Zm0,0" transform="translate(-5.81 -6.56)"/><rect class="cls-5" x="153.34" y="142.59" width="110.33" height="29.3"/><rect class="cls-6" x="208.49" y="142.59" width="55.19" height="29.3"/><rect class="cls-5" x="174.81" y="152.72" width="29.3" height="83.71"/><rect class="cls-6" x="215.12" y="152.72" width="29.3" height="55.87"/><path class="cls-5" d="M433.47,323.62a72.89,72.89,0,1,1-72.88-72.89,72.87,72.87,0,0,1,72.88,72.89Zm0,0" transform="translate(-5.81 -6.56)"/><path class="cls-7" d="M360.59,250.73h-.49V396.49h.49a72.89,72.89,0,0,0,0-145.77Zm0,0" transform="translate(-5.81 -6.56)"/><path class="cls-8" d="M405.75,323.62a45.16,45.16,0,1,1-45.16-45.17,45.16,45.16,0,0,1,45.16,45.17Zm0,0" transform="translate(-5.81 -6.56)"/><path class="cls-6" d="M360.59,278.45l-.49,0v90.3h.49a45.17,45.17,0,0,0,0-90.33Zm0,0" transform="translate(-5.81 -6.56)"/></svg>