<svg id="Camada_1" data-name="Camada 1" xmlns="http://www.w3.org/2000/svg" viewBox="0 0 501.75 501.75"><defs><style>.cls-1{fill:#34363f;}.cls-2{fill:#2b2d34;}.cls-3{fill:#f1a849;}.cls-4{fill:#f8b163;}.cls-5{fill:#d3892f;}.cls-6{fill:#f6a23c;}.cls-7{fill:#e8edf6;}.cls-8{fill:#fff;}</style></defs><title>sem-pacote-icon</title><circle class="cls-1" cx="250.88" cy="250.88" r="250.87"/><path class="cls-2" d="M124.34,321.51,304.78,502A251.22,251.22,0,0,0,499,312.46L314,127.54Z" transform="translate(-3.56 -5.25)"/><circle class="cls-3" cx="214.31" cy="217.99" r="135.67"/><path class="cls-4" d="M217.87,87.57h-.6V358.89h.6a135.67,135.67,0,1,0,0-271.33Z" transform="translate(-3.56 -5.25)"/><circle class="cls-5" cx="214.31" cy="217.99" r="104.95"/><path class="cls-6" d="M217.87,118.28h-.6V328.18h.6a105,105,0,0,0,0-209.9Z" transform="translate(-3.56 -5.25)"/><polygon class="cls-7" points="267.21 271.18 331.04 420.06 397.31 272.25 353.44 287.84 354.16 200.65 311.53 200.3 310.81 287.49 267.21 271.18"/><polygon class="cls-8" points="311.53 200.3 310.81 287.49 267.21 271.18 331.04 420.06 332.64 200.47 311.53 200.3"/><rect class="cls-8" x="153.99" y="194.73" width="118.7" height="46.2"/><rect class="cls-7" x="212.38" y="194.25" width="60.31" height="46.2"/></svg>